<svg width="210" height="45" viewBox="0 0 210 45" fill="none" xmlns="http://www.w3.org/2000/svg">
<path d="M70.0227 33V9.72727H79.3409C81.053 9.72727 82.4811 9.98106 83.625 10.4886C84.7689 10.9962 85.6288 11.7008 86.2045 12.6023C86.7803 13.4962 87.0682 14.5265 87.0682 15.6932C87.0682 16.6023 86.8864 17.4015 86.5227 18.0909C86.1591 18.7727 85.6591 19.3333 85.0227 19.7727C84.3939 20.2045 83.6742 20.5114 82.8636 20.6932V20.9205C83.75 20.9583 84.5795 21.2083 85.3523 21.6705C86.1326 22.1326 86.7652 22.7803 87.25 23.6136C87.7348 24.4394 87.9773 25.4242 87.9773 26.5682C87.9773 27.803 87.6705 28.9053 87.0568 29.875C86.4508 30.8371 85.553 31.5985 84.3636 32.1591C83.1742 32.7197 81.7083 33 79.9659 33H70.0227ZM74.9432 28.9773H78.9545C80.3258 28.9773 81.3258 28.7159 81.9545 28.1932C82.5833 27.6629 82.8977 26.9583 82.8977 26.0795C82.8977 25.4356 82.7424 24.8674 82.4318 24.375C82.1212 23.8826 81.678 23.4962 81.1023 23.2159C80.5341 22.9356 79.8561 22.7955 79.0682 22.7955H74.9432V28.9773ZM74.9432 19.4659H78.5909C79.2652 19.4659 79.8636 19.3485 80.3864 19.1136C80.9167 18.8712 81.3333 18.5303 81.6364 18.0909C81.947 17.6515 82.1023 17.125 82.1023 16.5114C82.1023 15.6705 81.803 14.9924 81.2045 14.4773C80.6136 13.9621 79.7727 13.7045 78.6818 13.7045H74.9432V19.4659ZM99.0426 33.3409C97.2472 33.3409 95.7017 32.9773 94.4062 32.25C93.1184 31.5152 92.1259 30.4773 91.429 29.1364C90.732 27.7879 90.3835 26.1932 90.3835 24.3523C90.3835 22.5568 90.732 20.9811 91.429 19.625C92.1259 18.2689 93.107 17.2121 94.3722 16.4545C95.6449 15.697 97.1373 15.3182 98.8494 15.3182C100.001 15.3182 101.073 15.5038 102.065 15.875C103.065 16.2386 103.937 16.7879 104.679 17.5227C105.429 18.2576 106.012 19.1818 106.429 20.2955C106.846 21.4015 107.054 22.697 107.054 24.1818V25.5114H92.3153V22.5114H102.497C102.497 21.8144 102.346 21.197 102.043 20.6591C101.74 20.1212 101.319 19.7008 100.781 19.3977C100.251 19.0871 99.6335 18.9318 98.929 18.9318C98.1941 18.9318 97.5426 19.1023 96.9744 19.4432C96.4138 19.7765 95.9744 20.2273 95.6562 20.7955C95.3381 21.3561 95.1752 21.9811 95.1676 22.6705V25.5227C95.1676 26.3864 95.3267 27.1326 95.6449 27.7614C95.9706 28.3902 96.429 28.875 97.0199 29.2159C97.6108 29.5568 98.3116 29.7273 99.1222 29.7273C99.66 29.7273 100.152 29.6515 100.599 29.5C101.046 29.3485 101.429 29.1212 101.747 28.8182C102.065 28.5152 102.308 28.1439 102.474 27.7045L106.952 28C106.724 29.0758 106.259 30.0152 105.554 30.8182C104.857 31.6136 103.955 32.2348 102.849 32.6818C101.751 33.1212 100.482 33.3409 99.0426 33.3409ZM125.736 17.25C125.577 16.697 125.353 16.2083 125.065 15.7841C124.777 15.3523 124.425 14.9886 124.009 14.6932C123.599 14.3902 123.13 14.1591 122.599 14C122.077 13.8409 121.497 13.7614 120.861 13.7614C119.671 13.7614 118.626 14.0568 117.724 14.6477C116.83 15.2386 116.134 16.0985 115.634 17.2273C115.134 18.3485 114.884 19.7197 114.884 21.3409C114.884 22.9621 115.13 24.3409 115.622 25.4773C116.115 26.6136 116.812 27.4811 117.713 28.0795C118.615 28.6705 119.679 28.9659 120.906 28.9659C122.02 28.9659 122.971 28.7689 123.759 28.375C124.554 27.9735 125.16 27.4091 125.577 26.6818C126.001 25.9545 126.213 25.0947 126.213 24.1023L127.213 24.25H121.213V20.5455H130.952V23.4773C130.952 25.5227 130.52 27.2803 129.656 28.75C128.793 30.2121 127.603 31.3409 126.088 32.1364C124.573 32.9242 122.838 33.3182 120.884 33.3182C118.702 33.3182 116.785 32.8371 115.134 31.875C113.482 30.9053 112.194 29.5303 111.27 27.75C110.353 25.9621 109.895 23.8409 109.895 21.3864C109.895 19.5 110.168 17.8182 110.713 16.3409C111.266 14.8561 112.039 13.5985 113.031 12.5682C114.024 11.5379 115.179 10.7538 116.497 10.2159C117.815 9.67803 119.243 9.40909 120.781 9.40909C122.099 9.40909 123.327 9.60227 124.463 9.98864C125.599 10.3674 126.607 10.9053 127.486 11.6023C128.372 12.2992 129.096 13.1288 129.656 14.0909C130.217 15.0455 130.577 16.0985 130.736 17.25H125.736ZM134.557 33V15.5455H139.25V18.5909H139.432C139.75 17.5076 140.284 16.6894 141.034 16.1364C141.784 15.5758 142.648 15.2955 143.625 15.2955C143.867 15.2955 144.129 15.3106 144.409 15.3409C144.689 15.3712 144.936 15.4129 145.148 15.4659V19.7614C144.92 19.6932 144.606 19.6326 144.205 19.5795C143.803 19.5265 143.436 19.5 143.102 19.5C142.39 19.5 141.754 19.6553 141.193 19.9659C140.64 20.2689 140.201 20.6932 139.875 21.2386C139.557 21.7841 139.398 22.4129 139.398 23.125V33H134.557ZM154.724 33.3409C152.959 33.3409 151.433 32.9659 150.145 32.2159C148.865 31.4583 147.876 30.4053 147.179 29.0568C146.482 27.7008 146.134 26.1288 146.134 24.3409C146.134 22.5379 146.482 20.9621 147.179 19.6136C147.876 18.2576 148.865 17.2045 150.145 16.4545C151.433 15.697 152.959 15.3182 154.724 15.3182C156.49 15.3182 158.012 15.697 159.293 16.4545C160.58 17.2045 161.573 18.2576 162.27 19.6136C162.967 20.9621 163.315 22.5379 163.315 24.3409C163.315 26.1288 162.967 27.7008 162.27 29.0568C161.573 30.4053 160.58 31.4583 159.293 32.2159C158.012 32.9659 156.49 33.3409 154.724 33.3409ZM154.747 29.5909C155.55 29.5909 156.221 29.3636 156.759 28.9091C157.296 28.447 157.702 27.8182 157.974 27.0227C158.255 26.2273 158.395 25.322 158.395 24.3068C158.395 23.2917 158.255 22.3864 157.974 21.5909C157.702 20.7955 157.296 20.1667 156.759 19.7045C156.221 19.2424 155.55 19.0114 154.747 19.0114C153.937 19.0114 153.255 19.2424 152.702 19.7045C152.156 20.1667 151.743 20.7955 151.463 21.5909C151.19 22.3864 151.054 23.2917 151.054 24.3068C151.054 25.322 151.19 26.2273 151.463 27.0227C151.743 27.8182 152.156 28.447 152.702 28.9091C153.255 29.3636 153.937 29.5909 154.747 29.5909ZM177.656 25.5682V15.5455H182.497V33H177.849V29.8295H177.668C177.274 30.8523 176.618 31.6742 175.702 32.2955C174.793 32.9167 173.683 33.2273 172.372 33.2273C171.205 33.2273 170.179 32.9621 169.293 32.4318C168.406 31.9015 167.713 31.1477 167.213 30.1705C166.721 29.1932 166.471 28.0227 166.463 26.6591V15.5455H171.304V25.7955C171.312 26.8258 171.588 27.6402 172.134 28.2386C172.679 28.8371 173.41 29.1364 174.327 29.1364C174.91 29.1364 175.455 29.0038 175.963 28.7386C176.471 28.4659 176.88 28.0644 177.19 27.5341C177.509 27.0038 177.664 26.3485 177.656 25.5682ZM186.369 39.5455V15.5455H191.142V18.4773H191.358C191.57 18.0076 191.877 17.5303 192.278 17.0455C192.688 16.553 193.218 16.1439 193.869 15.8182C194.528 15.4848 195.347 15.3182 196.324 15.3182C197.597 15.3182 198.771 15.6515 199.847 16.3182C200.922 16.9773 201.782 17.9735 202.426 19.3068C203.07 20.6326 203.392 22.2955 203.392 24.2955C203.392 26.2424 203.078 27.8864 202.449 29.2273C201.828 30.5606 200.979 31.572 199.903 32.2614C198.835 32.9432 197.638 33.2841 196.312 33.2841C195.373 33.2841 194.574 33.1288 193.915 32.8182C193.263 32.5076 192.729 32.1174 192.312 31.6477C191.896 31.1705 191.578 30.6894 191.358 30.2045H191.21V39.5455H186.369ZM191.108 24.2727C191.108 25.3106 191.252 26.2159 191.54 26.9886C191.828 27.7614 192.244 28.3636 192.79 28.7955C193.335 29.2197 193.998 29.4318 194.778 29.4318C195.566 29.4318 196.233 29.2159 196.778 28.7841C197.324 28.3447 197.737 27.7386 198.017 26.9659C198.305 26.1856 198.449 25.2879 198.449 24.2727C198.449 23.2652 198.309 22.3788 198.028 21.6136C197.748 20.8485 197.335 20.25 196.79 19.8182C196.244 19.3864 195.574 19.1705 194.778 19.1705C193.991 19.1705 193.324 19.3788 192.778 19.7955C192.241 20.2121 191.828 20.803 191.54 21.5682C191.252 22.3333 191.108 23.2348 191.108 24.2727Z" fill="white"/>
<g clip-path="url(#clip0_3310_11)">
<path d="M52.9029 21.9767C51.2759 15.6172 45.2825 10.9034 38.1391 10.9034C33.4827 10.9034 29.3219 12.907 26.5262 16.0644C26.6291 16.1807 26.7413 16.3059 26.8441 16.4311C28.7235 18.703 29.6772 21.5474 29.6772 24.4365V28.8998H45.2825H51.8931C52.5008 28.8998 53.0151 28.4705 53.1179 27.898C53.2582 27.102 53.333 26.2791 53.333 25.4383C53.3423 24.2486 53.1834 23.0859 52.9029 21.9767ZM30.9956 21.9767C32.3233 19.4901 35.0161 17.7728 38.1391 17.7728C41.262 17.7728 43.9548 19.4812 45.2825 21.9767H30.9956Z" fill="url(#paint0_linear_3310_11)"/>
<path d="M23.2069 25.5456C23.235 29.0697 24.5627 32.2898 26.7693 34.7943C24.572 32.2898 23.235 29.0697 23.2069 25.5456Z" fill="url(#paint1_linear_3310_11)"/>
<path d="M44.5626 31.5295C44.2353 31.2164 43.7211 31.1896 43.3657 31.4579C41.4022 32.9427 38.7001 33.5689 35.8763 32.737C33.7819 32.1198 32.1269 30.6798 31.2106 28.864C30.4533 27.3703 30.2569 25.2057 30.2569 25.2057L30.0419 23.3721C29.9016 22.1288 29.6118 20.9034 29.1162 19.7495C28.6487 18.6404 28.0409 17.5939 27.2742 16.6368C27.1153 16.4401 26.9563 16.2522 26.788 16.0644C24.0017 12.907 19.8316 10.9034 15.1752 10.9034C12.2299 10.9034 9.48101 11.7084 7.15283 13.0948V25.4383V25.4472C7.15283 21.0554 11.0051 17.5313 15.6521 17.7907C19.7942 18.0232 23.0199 21.3417 23.1789 25.3041L23.1882 25.4472V25.4562C23.1882 25.4919 23.1882 25.5188 23.1882 25.5545C23.2163 29.0787 24.544 32.2987 26.7506 34.8032C26.76 34.8121 26.7693 34.8211 26.7787 34.839C29.565 37.9964 33.7352 40 38.3915 40C42.197 40 45.6659 38.6672 48.3307 36.4579C48.7234 36.127 48.7327 35.5456 48.368 35.1968L44.5626 31.5295Z" fill="url(#paint2_linear_3310_11)"/>
<path d="M23.2069 25.5456C23.2069 25.5188 23.2069 25.4919 23.2069 25.4741C23.2069 25.7156 23.1882 25.9571 23.1602 26.1986C22.7581 30.0716 19.3453 33.1038 15.1846 33.1038C10.762 33.1038 7.17152 29.678 7.17152 25.4472V25.4383V13.0948V13.0859V13.0322V0.500895C7.17152 0.223614 6.93777 0 6.64792 0H0.523605C0.233752 0 0 0.223614 0 0.500895V25.2504V25.5098C0 25.7066 0.00934981 25.9034 0.0186999 26.1002C0.0186999 26.1181 0.0186999 26.136 0.0186999 26.1538C0.439454 33.8283 7.07802 39.9195 15.1939 39.9195C19.8316 39.9195 23.983 37.9249 26.7693 34.7943C24.5627 32.2898 23.235 29.0698 23.2069 25.5456Z" fill="url(#paint3_linear_3310_11)"/>
</g>
<defs>
<linearGradient id="paint0_linear_3310_11" x1="30.1732" y1="29.4866" x2="48.2011" y2="14.226" gradientUnits="userSpaceOnUse">
<stop offset="0.1397" stop-color="#163D9A"/>
<stop offset="0.3284" stop-color="#174AAE"/>
<stop offset="0.7351" stop-color="#1963D6"/>
<stop offset="0.9469" stop-color="#1A6CE5"/>
</linearGradient>
<linearGradient id="paint1_linear_3310_11" x1="-8.15297" y1="30.1722" x2="49.0496" y2="30.1722" gradientUnits="userSpaceOnUse">
<stop offset="0.1117" stop-color="#00387C"/>
<stop offset="0.1483" stop-color="#013B80"/>
<stop offset="0.5386" stop-color="#0C5CA4"/>
<stop offset="0.7463" stop-color="#1068B2"/>
</linearGradient>
<linearGradient id="paint2_linear_3310_11" x1="48.6478" y1="25.4439" x2="7.16575" y2="25.4439" gradientUnits="userSpaceOnUse">
<stop stop-color="#1A6CE5"/>
<stop offset="0.2171" stop-color="#1A69E0"/>
<stop offset="0.4585" stop-color="#1961D3"/>
<stop offset="0.7115" stop-color="#1853BD"/>
<stop offset="0.9711" stop-color="#163F9E"/>
<stop offset="1" stop-color="#163D9A"/>
</linearGradient>
<linearGradient id="paint3_linear_3310_11" x1="-0.866231" y1="21.3677" x2="23.8658" y2="17.2729" gradientUnits="userSpaceOnUse">
<stop stop-color="#1A6CE5"/>
<stop offset="0.2955" stop-color="#1A68E2"/>
<stop offset="0.5624" stop-color="#195DD7"/>
<stop offset="0.8175" stop-color="#194BC6"/>
<stop offset="1" stop-color="#1839B5"/>
</linearGradient>
<clipPath id="clip0_3310_11">
<rect width="53.3333" height="40" fill="white"/>
</clipPath>
</defs>
</svg>
