<svg width="216" height="62" viewBox="0 0 216 62" fill="none" xmlns="http://www.w3.org/2000/svg">
<path d="M75.6596 43.0676C74.0593 43.0676 72.5686 42.7518 71.1875 42.1202C69.8173 41.4886 68.6171 40.6188 67.5867 39.5108C66.5673 38.3916 65.7726 37.1007 65.2026 35.6381C64.6326 34.1754 64.3477 32.6186 64.3477 30.9676C64.3477 29.1947 64.6601 27.577 65.2848 26.1143C65.9096 24.6517 66.7591 23.3885 67.8333 22.3247C68.9075 21.2499 70.1242 20.4244 71.4834 19.8482C72.8536 19.261 74.2785 18.9673 75.7583 18.9673C77.3805 18.9673 78.9699 19.3496 80.5264 20.1142C82.0829 20.8787 83.475 22.0921 84.7026 23.7541L80.658 25.9481C79.9564 25.1281 79.1727 24.5187 78.3068 24.1198C77.4518 23.7209 76.5804 23.5215 75.6925 23.5215C74.8047 23.5215 73.9497 23.7043 73.1276 24.0699C72.3165 24.4356 71.593 24.9564 70.9573 25.6323C70.3215 26.3082 69.8173 27.106 69.4446 28.0257C69.0719 28.9454 68.8856 29.9593 68.8856 31.0673C68.8856 32.0978 69.061 33.0618 69.4117 33.9594C69.7735 34.8569 70.2667 35.6436 70.8915 36.3195C71.5163 36.9955 72.2397 37.5273 73.0618 37.9152C73.8949 38.2919 74.7827 38.4803 75.7254 38.4803C76.3063 38.4803 76.8763 38.3972 77.4354 38.231C78.0053 38.0537 78.5479 37.7988 79.0631 37.4664C79.5783 37.134 80.0496 36.7184 80.4771 36.2198C80.9155 35.7212 81.2992 35.145 81.628 34.4912H78.0601V30.5022H86.9716C87.0374 32.2197 86.7908 33.8375 86.2317 35.3555C85.6727 36.8736 84.8725 38.2143 83.8312 39.3778C82.7899 40.5302 81.5732 41.4332 80.1811 42.087C78.7891 42.7408 77.2819 43.0676 75.6596 43.0676Z" fill="white"/>
<path d="M100.644 43.0676C99.0878 43.0676 97.6245 42.7574 96.2543 42.1369C94.8842 41.5053 93.6784 40.6354 92.6371 39.5274C91.5958 38.4193 90.7792 37.1395 90.1873 35.688C89.5954 34.2253 89.2994 32.6629 89.2994 31.0009C89.2994 29.3388 89.5954 27.7819 90.1873 26.3304C90.7792 24.8677 91.5958 23.5824 92.6371 22.4743C93.6784 21.3663 94.8842 20.502 96.2543 19.8815C97.6245 19.2499 99.0878 18.9341 100.644 18.9341C102.212 18.9341 103.681 19.2499 105.051 19.8815C106.421 20.502 107.627 21.3663 108.668 22.4743C109.709 23.5824 110.52 24.8677 111.101 26.3304C111.693 27.7819 111.989 29.3388 111.989 31.0009C111.989 32.6629 111.693 34.2253 111.101 35.688C110.52 37.1395 109.709 38.4193 108.668 39.5274C107.627 40.6354 106.421 41.5053 105.051 42.1369C103.681 42.7574 102.212 43.0676 100.644 43.0676ZM100.644 38.4803C101.576 38.4803 102.453 38.2864 103.275 37.8985C104.097 37.4996 104.82 36.9567 105.445 36.2697C106.07 35.5827 106.558 34.7904 106.909 33.8929C107.27 32.9954 107.451 32.0314 107.451 31.0009C107.451 29.9704 107.27 29.0064 106.909 28.1088C106.558 27.2002 106.07 26.4079 105.445 25.732C104.82 25.045 104.097 24.5076 103.275 24.1198C102.453 23.7209 101.576 23.5215 100.644 23.5215C99.7126 23.5215 98.8357 23.7209 98.0136 24.1198C97.1915 24.5076 96.4681 25.045 95.8433 25.732C95.2185 26.419 94.7252 27.2113 94.3635 28.1088C94.0127 29.0064 93.8374 29.9704 93.8374 31.0009C93.8374 32.0314 94.0127 33.0009 94.3635 33.9095C94.7252 34.807 95.2185 35.5993 95.8433 36.2863C96.4681 36.9622 97.1915 37.4996 98.0136 37.8985C98.8357 38.2864 99.7126 38.4803 100.644 38.4803Z" fill="white"/>
<path d="M125.628 43.0676C124.072 43.0676 122.608 42.7574 121.238 42.1369C119.868 41.5053 118.662 40.6354 117.621 39.5274C116.58 38.4193 115.763 37.1395 115.171 35.688C114.579 34.2253 114.283 32.6629 114.283 31.0009C114.283 29.3388 114.579 27.7819 115.171 26.3304C115.763 24.8677 116.58 23.5824 117.621 22.4743C118.662 21.3663 119.868 20.502 121.238 19.8815C122.608 19.2499 124.072 18.9341 125.628 18.9341C127.196 18.9341 128.664 19.2499 130.035 19.8815C131.405 20.502 132.61 21.3663 133.652 22.4743C134.693 23.5824 135.504 24.8677 136.085 26.3304C136.677 27.7819 136.973 29.3388 136.973 31.0009C136.973 32.6629 136.677 34.2253 136.085 35.688C135.504 37.1395 134.693 38.4193 133.652 39.5274C132.61 40.6354 131.405 41.5053 130.035 42.1369C128.664 42.7574 127.196 43.0676 125.628 43.0676ZM125.628 38.4803C126.56 38.4803 127.437 38.2864 128.259 37.8985C129.081 37.4996 129.804 36.9567 130.429 36.2697C131.054 35.5827 131.542 34.7904 131.892 33.8929C132.254 32.9954 132.435 32.0314 132.435 31.0009C132.435 29.9704 132.254 29.0064 131.892 28.1088C131.542 27.2002 131.054 26.4079 130.429 25.732C129.804 25.045 129.081 24.5076 128.259 24.1198C127.437 23.7209 126.56 23.5215 125.628 23.5215C124.696 23.5215 123.82 23.7209 122.997 24.1198C122.175 24.5076 121.452 25.045 120.827 25.732C120.202 26.419 119.709 27.2113 119.347 28.1088C118.997 29.0064 118.821 29.9704 118.821 31.0009C118.821 32.0314 118.997 33.0009 119.347 33.9095C119.709 34.807 120.202 35.5993 120.827 36.2863C121.452 36.9622 122.175 37.4996 122.997 37.8985C123.82 38.2864 124.696 38.4803 125.628 38.4803Z" fill="white"/>
<path d="M139.861 42.6355V19.3662H144.76L153.738 34.3417V19.3662H158.275V42.6355H153.376L144.399 27.6601V42.6355H139.861Z" fill="white"/>
<path d="M162.211 42.6355L166.683 19.3662H170.514L175.858 33.6103L181.218 19.3662H185.049L189.521 42.6355H184.884L182.336 29.2889L177.42 42.4028H174.296L169.396 29.2889L166.831 42.6355H162.211Z" fill="white"/>
<path d="M199.289 19.3662H204.452L212.805 42.6355H207.987L206.606 38.7794H197.135L195.754 42.6355H190.937L199.289 19.3662ZM198.796 34.1921H204.945L201.854 25.6655L198.796 34.1921Z" fill="white"/>
<path fill-rule="evenodd" clip-rule="evenodd" d="M15.1007 8.87793C9.55943 8.87793 5.06738 13.3354 5.06738 18.834V43.6694C5.06738 49.168 9.55942 53.6256 15.1006 53.6256H40.1285C45.6697 53.6256 50.1618 49.1681 50.1618 43.6694V18.834C50.1618 13.3354 45.6698 8.87793 40.1285 8.87793H15.1007ZM10.4424 31.2792C10.4424 21.853 18.143 14.2116 27.6423 14.2116C37.1415 14.2116 44.8421 21.853 44.8421 31.2792C44.8421 40.7054 37.1415 48.3468 27.6423 48.3468C18.143 48.3468 10.4424 40.7054 10.4424 31.2792ZM21.3641 25.9385C21.3641 25.4475 21.7652 25.0495 22.2599 25.0495H33.0242C33.519 25.0495 33.92 25.4475 33.92 25.9385V36.62C33.92 37.1109 33.519 37.5089 33.0242 37.5089H22.2599C21.7652 37.5089 21.3641 37.1109 21.3641 36.62V25.9385Z" fill="url(#paint0_linear_25478_225186)"/>
<defs>
<linearGradient id="paint0_linear_25478_225186" x1="13.3773" y1="46.4579" x2="47.8061" y2="8.0547" gradientUnits="userSpaceOnUse">
<stop stop-color="#B45CEA"/>
<stop offset="1" stop-color="#FF9393"/>
</linearGradient>
</defs>
</svg>
