<svg xmlns="http://www.w3.org/2000/svg" viewBox="0 0 117 24" data-testid="sb.header.logo.swingby-logo" class="sc-hknOHE lkljD"><path fill="white" d="M.045 12.995c-.03-.34-.045-.682-.045-1.03C0 5.369 5.374 0 11.98 0c6.604 0 11.978 5.368 11.978 11.966 0 6.598-5.373 11.966-11.979 11.966-1.339 0-2.627-.221-3.872-.64l-.172-.062-.073-.027a11.97 11.97 0 01-7.414-7.991l-.033-.123-.007-.026a11.123 11.123 0 01-.065-.252l-.018-.074a12.236 12.236 0 01-.28-1.742zm15.408-2.606c.116.252.192.5.228.743a3.78 3.78 0 01-1.268 3.742 16.043 16.043 0 00-4.623 7.34c-.035.119.04.245.163.268a10.75 10.75 0 002.026.193c5.921 0 10.721-4.794 10.721-10.71a10.696 10.696 0 00-.14-1.703 100.82 100.82 0 00-.419-1.713A10.723 10.723 0 0011.98 1.257c-5.57 0-10.148 4.244-10.67 9.672a.213.213 0 00.326.2 18.448 18.448 0 0110.25-2.952 3.792 3.792 0 013.12 1.504l.014.018c.062.077.276.345.434.69zM8.576 21.885a17.309 17.309 0 015.198-8.126 2.536 2.536 0 00-1.795-4.327h-.066l-.015.001h-.209a17.32 17.32 0 00-10.293 3.386l-.086.192.018.166c.45 3.976 3.216 7.478 6.973 8.85a.212.212 0 00.275-.142z"></path><path fill="white" d="M35.627 14.914h-3.19c0 2.775 2.17 4.766 5.426 4.766 2.648 0 5.34-1.454 5.383-4.52.044-1.476-.477-3.58-4.102-4.653l-1.78-.582C35.91 9.5 35.758 8.762 35.758 8.36c0-.917.824-1.544 1.931-1.544 1.26 0 1.932.716 1.932 1.746h3.17c0-2.954-2.171-4.721-5.058-4.721-2.865 0-5.145 1.857-5.145 4.609 0 1.387.565 3.378 3.864 4.43l1.802.514c1.52.447 1.823 1.052 1.801 1.745-.021 1.007-.911 1.633-2.192 1.633-1.432 0-2.192-.872-2.236-1.857zM56.992 18.84l3.676-9.96h-3.317l-1.86 5.93-1.838-5.93h-2.668l-1.838 5.93-1.86-5.93H43.97l3.788 9.96h2.6l1.972-6.333 2.062 6.334h2.6zM65.834 18.84V8.88H62.47v9.96h3.364zM63.695 3.12c-1.116 0-2.066.72-2.066 1.669 0 .948.95 1.69 2.066 1.69 1.116 0 2.018-.742 2.018-1.69s-.902-1.67-2.018-1.67zM71.23 19.08v-5.654c0-1.626.83-2.175 1.928-2.175 1.053 0 1.815.71 1.815 2.129v5.7h3.114v-6.387c0-3.045-1.478-4.533-3.831-4.533-1.233 0-2.465.71-3.025 1.786V8.389h-3.115V19.08h3.115z"></path><path fill="white" d="M84.963 21.212c-1 0-2.171-.714-2.512-1.674-.372.19-.782.402-1.192.614-.41.212-.82.424-1.192.613A5.286 5.286 0 0084.963 24c3.533 0 5.619-2.164 5.619-6.648V8.383h-2.874v1.294c-.49-.96-1.745-1.517-2.98-1.517-2.553 0-4.959 2.12-4.959 5.466 0 3.28 2.405 5.4 4.96 5.4 1.234 0 2.511-.559 2.98-1.518.127 2.075-.49 3.704-2.746 3.704zm.742-9.812c1.27 0 2.474.9 2.474 2.475 0 1.53-1.226 2.565-2.474 2.565-1.291 0-2.452-.99-2.452-2.565 0-1.485 1.16-2.475 2.452-2.475zM94.065 18.742h2.979v-1.256c.496.931 1.705 1.473 2.956 1.473 2.59 0 4.878-2.058 4.878-5.244 0-3.25-2.288-5.309-4.878-5.309-1.251 0-2.46.52-2.956 1.452V3.12h-2.979v15.623zm5.106-2.303c-1.322 0-2.463-1.035-2.463-2.542 0-1.575 1.163-2.498 2.463-2.498 1.346 0 2.463.99 2.463 2.498 0 1.552-1.117 2.542-2.463 2.542z"></path><path fill="white" d="M110.34 24l6.191-15.24h-3.181l-2.236 5.802L108.9 8.76h-3.181l3.869 9.174L107.18 24h3.16z"></path></svg>
